<svg xmlns="http://www.w3.org/2000/svg" viewBox="0 0 106.38 127.65"><g data-name="Layer 2"><g data-name="Layer 1"><g class="cls-1"><path d="M66.44 78.5l4.14 49.15-66.45-6.47L0 72.03l66.44 6.47z" class="cls-2"/><path d="M72.63 77.09l17.99-23.77 4.21 50.05-18 23.77-4.2-50.05z" class="cls-3"/><path d="M1.54 64.54l18-23.77 67.29 6.55-18 23.77-67.29-6.55z" class="cls-4"/></g><path d="M66.44 78.5l4.14 49.15-66.45-6.47L0 72.03l66.44 6.47zm6.19-1.41l17.99-23.77 4.21 50.05-18 23.77-4.2-50.05zM1.54 64.54l18-23.77 67.29 6.55-18 23.77-67.29-6.55z"/><g class="cls-1"><path d="M75.85 37.63l-7.69 13.45-12.95-11.07 7.7-13.45 12.94 11.07z" class="cls-2"/><path d="M78.23 38.35l8.22-3.51-7.77 13.74-8.22 3.51 7.77-13.74z" class="cls-3"/><path d="M64.25 24.84l7.95-3.68 13.11 11.21-7.96 3.68-13.1-11.21z" class="cls-4"/></g><path d="M75.85 37.63l-7.69 13.45-12.95-11.07 7.7-13.45 12.94 11.07zm2.38.72l8.22-3.51-7.77 13.74-8.22 3.51 7.77-13.74zM64.25 24.84l7.95-3.68 13.11 11.21-7.96 3.68-13.1-11.21z"/><g class="cls-1"><path d="M97.58 24.58l-2.49 10.25-10.54-4.79 2.48-10.25 10.55 4.79z" class="cls-2"/><path d="M98.04 24.41l4.5-3.91-2.53 10.43-4.51 3.91 2.54-10.43z" class="cls-3"/><path d="M87.12 19.26l4.51-3.91 10.68 4.85-4.51 3.91-10.68-4.85z" class="cls-4"/></g><path d="M97.58 24.58l-2.49 10.25-10.54-4.79 2.48-10.25 10.55 4.79zm.46-.17l4.5-3.91-2.53 10.43-4.51 3.91 2.54-10.43zm-10.92-5.15l4.51-3.91 10.68 4.85-4.51 3.91-10.68-4.85z"/><g class="cls-1"><path d="M103.26 5.8l-1.56 6.44-6.63-3.01 1.57-6.44 6.62 3.01z" class="cls-2"/><path d="M103.55 5.69l2.83-2.46-1.6 6.56-2.83 2.45 1.6-6.55z" class="cls-3"/><path d="M96.69 2.46L99.52 0l6.71 3.05-2.83 2.45-6.71-3.04z" class="cls-4"/></g><path d="M103.26 5.8l-1.56 6.44-6.63-3.01 1.57-6.44 6.62 3.01zm.29-.11l2.83-2.46-1.6 6.56-2.83 2.45 1.6-6.55zm-6.86-3.23L99.52 0l6.71 3.05-2.83 2.45-6.71-3.04z"/><g class="cls-1"><path d="M23.61 42.13l7.88-10.02L51 39.66l-7.87 10.01-19.52-7.54z" class="cls-4"/></g><path d="M23.61 42.13l7.88-10.02L51 39.66l-7.87 10.01-19.52-7.54z"/></g></g></svg>