<svg xmlns="http://www.w3.org/2000/svg" viewBox="0 0 75.2 62"><defs/><g><g><path d="M40 58H20.05C6.89 58 0 48 0 38.08a20.33 20.33 0 015-13.62 18.71 18.71 0 0111.26-6c.36-8.58 6.93-14.68 14-17.13C37.91-1.3 48-.36 54 7.23c3.94-1 8.74.37 13.33 4.08 5.22 4.22 9.67 11.11 7.09 16.27a3.54 3.54 0 01-1 1.18c-4 .58-5.59-1.23-5.4-4.79-.21-1.52-2.46-5.43-6.64-8.18-1-.68-4.55-2.78-6.46-1.25a3.6 3.6 0 01-2.92.71 3.55 3.55 0 01-2.42-1.79c-2.49-4.56-6.9-6.38-11.33-6.38a17.44 17.44 0 00-5.67 1c-4.92 1.7-10.25 6.15-9.1 13.09a3.52 3.52 0 01-.72 2.83 3.56 3.56 0 01-2.71 1.26 12.58 12.58 0 00-9.72 3.92 13.26 13.26 0 00-3.22 8.88c0 6.37 4 12.81 12.94 12.81l16 .11z"/><path d="M51.41 32a2.87 2.87 0 01-2-.85l-9.6-9.55-9.55 9.55a2.9 2.9 0 11-4.1-4.1l11.6-11.6a2.9 2.9 0 014.1 0l11.6 11.6A2.9 2.9 0 0151.41 32z"/><path d="M39.66 62h11.57c-1.29-3.86 4.85-16.57 3.85-19.29-1-4.71-9-6.42-12.85-3V28.57a2.58 2.58 0 00-5.15 0v18.84l-4.75-4.08A2.57 2.57 0 0029 47.24c4.23 4.47 10.66 8.33 10.66 14.76z"/></g></g></svg>