<svg xmlns="http://www.w3.org/2000/svg" viewBox="0 0 42.43 30">
  <defs>
    <style>
      .cls-1 {
        fill: #fff;
      }

      .cls-2 {
        fill: #000000;
      }
    </style>
  </defs>
  <title>icon-logo-download</title>
  <g id="Calque_2" data-name="Calque 2">
    <g id="Calque_1-2" data-name="Calque 1">
      <g>
        <path class="cls-1" d="M17.54,19.36a6.91,6.91,0,1,1-6.91-6.91,6.91,6.91,0,0,1,6.91,6.91Z"/>
        <path class="cls-2" d="M31.79,8.59h-.2a10.64,10.64,0,0,0-20.66-.91,10.73,10.73,0,0,1,3.67.75,6.92,6.92,0,0,1,13.34.88,7.4,7.4,0,0,1,.13,1.33,6.74,6.74,0,0,1-1,3.5,6.91,6.91,0,0,1,4.55-1.82h.13a6.91,6.91,0,1,1,.32,13.82L21,25.94a10.68,10.68,0,0,1-3.68,3.93H31.79a10.64,10.64,0,0,0,0-21.28Z"/>
        <path class="cls-2" d="M10.64,30A10.64,10.64,0,1,1,21.28,19.36h0A10.65,10.65,0,0,1,10.64,30Zm0-17.56a6.92,6.92,0,1,0,6.92,6.92A6.92,6.92,0,0,0,10.64,12.44Z"/>
        <path class="cls-2" d="M12.45,22.45l-.56-3.35a1.66,1.66,0,0,0,.44-1.1,1.7,1.7,0,0,0-3.39-.26,1.13,1.13,0,0,0,0,.26,1.68,1.68,0,0,0,.43,1.13l-.55,3.35Z"/>
        <path class="cls-1" d="M12,21.81v.28H9.27l.53-3a1.55,1.55,0,0,1,0-2.19l.08-.08a1.51,1.51,0,0,0,.27,2l-.52,3Z"/>
      </g>
    </g>
  </g>
</svg>
