<svg xmlns="http://www.w3.org/2000/svg" viewBox="0 0 40.84 21.28"><g data-name="Layer 2"><path fill="#010002" d="M13.59 13.44l1.68.82-1 2-1 .14-.15.77-2 1.69-.92 1.72.67.73-.98-.31-.38-1 1.1-4.47-.91-.82L9.27 13l.51-.85-.47.07-.67-.86-.57-.29-1.35-.48-1.1-1.71L5 7.64V6L3.84 4.08l-1.39-.86-.87.48L0 4.47l1-.82-.62-.14-.24-.82.72-.58L.14 2l.15-.53h.53L.34.77 1.63 0 4 1.3l.85-.82 1.87 1.11 3.6-.39V3l-1.44.28-.29.77L10 5.57l.33-.05.24-1.87h.92l.38 1.06.48-.29 1.05 2.31-1.49.66-1.15.61-.92 1.27v.62h-.33l-.24-.67L8 9.46l-.29.82.34.48.48-.39.48.05-.24.68h.57l.2.72.38.13.29-.47 1.92.2 1.3 1zM36.33 13l-.1.81-.69-.25.13-.44-.76-.06-1 .91-1 .38.26 1.41-.1.28.38.22L35 15.9l.6.35.28-.16.19.57.79.22.56-.35.32-1.69-.89-.84zm-3.81-.79l.81.15.38-1.16-.22-.2-1.1.69zm2.48-.3l.85.88h.49l.2-.19.7.44-.29-.6-1.29-.63zm1.55-7.14h-.23V5.9l-.56 1.2-.76.53v.48l1.32-.79.07-.82.43-.41-.34-.28.19-.66zM40 16.19l.09.88-1 .92.63.06.56-.85.44-.6h-.29zM18.94 3v.92l.64-.28.18-.28L19.07 2l-.41.29v.35l-.38.46v.48h.46zm5.75 10.8v1l.41.17.41-1.22-.11-.51zM38.84 3.07v.72l-.82 1V3.66l1.06-1.29-.65.09-.86.69-1-.06-.78.76.56.41-.66 1.82-.56.1-.35.5.16.66-.41.22-.16-.56-.37-.5-.47.5.38 1.07-.53 1-1.17.06-.21.39.53.78-.56.48-.58-.61v.57l.5.57.22 1 .64.22.85.35-1.6-.27-.68-.61-.59-.86.81.41-.38-.68-.07-.95-.36.1-.44-.95-1.23.85v.54l-.44.44-.57-1.41-.63-.76-1.51-.28-.44-.38-.22.13.31.75.51-.25.66.5-1.95 1.17-1-2h-.21l1 2.36 1-.48-.31 1.11-1 .91.16 1.35-.57.44-1 1.95-1 .19-.97-2.2.22-1-.57-1.77-1.92.13-1.07-1 .19-1.7 1-1.26 2-.34.13.53.82.53.32-.45 1.29.33.32-.2.15-.47-.87-.14-.28-.49-.2-.1-.18.61-.38-.48v-.41l-.51-.41-.31-.15v.41l.64.43-.28.4-.46-.61L20.6 6l-.77.38-.53.84-.82-.12-.05-1 1.05.07-.33-.53-.21-.44.79-.25.43-.59h.36L20.44 4l.23-.31.18.51h1l.27-.71.39.13-.13-.49.62-.2-.18-.21-.54.15-.18-.46-.1-.23.2-.18.18-.48h-.2l-.33.41-.28.61.31.33-.31.81-.46.18-.25-.81-.53.3-.26-.15v-.79l.46-.35.38-.94 1-.54 2.42.42 7.84-.8 8.36 1.18.31.88-1.14.63zM24.52 6.26l-1.32-.69-.41.71.18.33.76-.12.57.15zm1.4.86l-.13-.79-.25-.33.31-.13v-.43l-.79.44.27.71-.12.48zM14.51.93L13.8.74l-.88.94 1.13 2.93.53.13.05-1 .37-.17V3.2l.37-.69-.25-.51z" data-name="Layer 1"/></g></svg>