<svg xmlns="http://www.w3.org/2000/svg" viewBox="0 0 297 187.5"><defs><style></style></defs><g id="2d6b835b-b124-49db-8a4e-0ddd218dcdd9"><path class="1e9fdeb7-6a99-4cc4-9c46-2c349f037119" d="M289.46 82.5L293 44 258 0h-99l-.19 1.34L75.5 6l82 4.78-1.82 12.75L122.5 27l32.25 2.73-4.81 33.77H142l-.78 5.33L42 73.5l97.66 5.93L137 98.5h-22l1 9.44-40 3.56 40.84 5.19 2.61 25.84L0 147.5l120.63 6.63L124 187.5h144l29-105zM258.52 7.08l22.1 27.79c-3.5-.63-7.94-1.36-11.87-1.85a86.22 86.22 0 00-14.69-.29 38.68 38.68 0 003.41-10.39 104.34 104.34 0 001.05-15.26zm26.92 75.42H187l-19 16h-18.25l4.22-35L162 7l-16.4-1 16.67-.93.2-1.07h92.05c0 2.87 0 11.66-1 17.66a34.89 34.89 0 01-4.69 12.22l-2.39 3.53 4.26-.41a95.49 95.49 0 0117.55 0c5.9.74 13 2.05 16.16 2.65l4.46 5.6z" id="b01abbf1-1b82-41dc-8152-b614793ef3a7"/></g></svg>
