<svg xmlns="http://www.w3.org/2000/svg" viewBox="0 0 128.42 186"><defs></defs><g id="bf10cfe1-744e-4d9f-b729-f89246672a91" data-name="Layer 2"><g id="d4091663-40d1-4470-a36b-bed866abd292" data-name="Layer 3"><path class="f4dcf35e-fa3e-4a9a-a87c-0e665861a6b6" d="M120 95a50.85 50.85 0 01-1 15c-24-52 1-55-13-73 1 13-17 20-14 42-16-21 7-44-3-54-10 38-46 3-25-25-36 6-12 58-31 65q-.36-20.61-14-26c12 36-21 48-6 77-4.43-2.88-8.77-2.68-13 1 11.68 7.79-1.26 44.94 37.69 63.52a48.51 48.51 0 1154.4 2.17c30.33-8.85 47.67-57.06 27.91-87.69z"/><path class="f4dcf35e-fa3e-4a9a-a87c-0e665861a6b6" d="M66.5 97a44.5 44.5 0 1044.5 44.5A44.5 44.5 0 0066.5 97zM49 169c-7-5-7-18-7-18v-32a6.49 6.49 0 0113 0v32s0 9 6 14c5 5 13 8 13 8s-16 3-25-4zm41-18a33 33 0 01-3 13c-2 5-8 8-8 8l-8-4-7-4s6 1 10-3c3-3 3-10 3-10v-32a6.49 6.49 0 0113 0z"/></g></g></svg>
