<svg xmlns="http://www.w3.org/2000/svg" viewBox="0 0 32 22"><title>Asset 1</title><g id="Layer_2" data-name="Layer 2"><g id="Layer_1-2" data-name="Layer 1"><path d="M16,0A7.88,7.88,0,0,0,8.19,7.13a4.87,4.87,0,0,0-3.85,3.21A5.92,5.92,0,0,0,0,16a6,6,0,0,0,6,6H26a5.92,5.92,0,0,0,3.91-10.44,7,7,0,0,0-6.57-6.5A7.94,7.94,0,0,0,16,0Zm0,2a6,6,0,0,1,5.75,4.28L22,7h1a5,5,0,0,1,5,5v.5l.41.31A4.08,4.08,0,0,1,30,16a3.91,3.91,0,0,1-4,4H6a4,4,0,0,1-.72-7.91L5.94,12l.12-.66A3,3,0,0,1,9,9h1V8A5.93,5.93,0,0,1,16,2Zm0,5.59-.72.69-4,4,1.44,1.44L15,11.44V18h2V11.44l2.28,2.28,1.44-1.44-4-4Z"/></g></g></svg>