<?xml version="1.0" encoding="UTF-8" standalone="no"?>
<!DOCTYPE svg PUBLIC "-//W3C//DTD SVG 1.1//EN" "http://www.w3.org/Graphics/SVG/1.1/DTD/svg11.dtd">
<svg version="1.1" xmlns="http://www.w3.org/2000/svg" xmlns:xlink="http://www.w3.org/1999/xlink" preserveAspectRatio="xMidYMid meet" viewBox="0 0 651 651" width="651" height="651"><defs><path d="M396.74 292.2L396.74 120.96L205.13 78.83L467.98 0L396.74 292.2Z" id="eZ0Qzngvf"></path><path d="M71.24 320.74L196.53 159.01L336.55 240.56L141.25 25.82L71.24 320.74Z" id="ahrxuwKa7"></path><path d="M265.31 273.18L128.97 364.23L192.84 569.46L0 352L265.31 273.18Z" id="b19xOyHWDM"></path><path d="M253.03 358.8L257.94 532.76L448.33 573.53L183.02 651L253.03 358.8Z" id="aI4rPypvU"></path><path d="M315.67 413.16L454.47 491.99L579.76 331.62L508.52 627.9L315.67 413.16Z" id="a2fN4iwY6a"></path><path d="M385.69 380.54L520.8 286.77L460.61 88.34L651 300.36L385.69 380.54Z" id="aBVRwuakx"></path></defs><g><g><g><use xlink:href="#eZ0Qzngvf" opacity="1" fill="#000000" fill-opacity="1"></use></g><g><use xlink:href="#ahrxuwKa7" opacity="1" fill="#000000" fill-opacity="1"></use></g><g><use xlink:href="#b19xOyHWDM" opacity="1" fill="#000000" fill-opacity="1"></use></g><g><use xlink:href="#aI4rPypvU" opacity="1" fill="#000000" fill-opacity="1"></use></g><g><use xlink:href="#a2fN4iwY6a" opacity="1" fill="#000000" fill-opacity="1"></use><g><use xlink:href="#a2fN4iwY6a" opacity="1" fill-opacity="0" stroke="#000000" stroke-width="0" stroke-opacity="1"></use></g></g><g><use xlink:href="#aBVRwuakx" opacity="1" fill="#000000" fill-opacity="1"></use></g></g></g></svg>