<svg xmlns="http://www.w3.org/2000/svg" xmlns:xlink="http://www.w3.org/1999/xlink" width="651" height="651"><defs><path d="M396.74 292.2V120.96L205.13 78.83 467.98 0l-71.24 292.2z" id="a"/><path d="M71.24 320.74l125.29-161.73 140.02 81.55-195.3-214.74-70.01 294.92z" id="b"/><path d="M265.31 273.18l-136.34 91.05 63.87 205.23L0 352l265.31-78.82z" id="c"/><path d="M253.03 358.8l4.91 173.96 190.39 40.77L183.02 651l70.01-292.2z" id="d"/><path d="M315.67 413.16l138.8 78.83 125.29-160.37-71.24 296.28-192.85-214.74z" id="e"/><path d="M385.69 380.54l135.11-93.77-60.19-198.43L651 300.36l-265.31 80.18z" id="f"/></defs><use xlink:href="#a"/><use xlink:href="#b"/><use xlink:href="#c"/><use xlink:href="#d"/><use xlink:href="#e"/><use xlink:href="#e" fill-opacity="0" stroke="#000" stroke-width="0"/><g><use xlink:href="#f"/></g></svg>
