<svg xmlns="http://www.w3.org/2000/svg" viewBox="0 0 150.2 73"><g data-name="Layer 2"><path d="M115.9 0C94.6 0 80.5 17.4 68 32.8 57.4 45.9 47.4 58.3 35.1 58.3c-12.7 0-20.5-13-20.5-22.4 0-8.7 8.6-21.3 22-21.3a25 25 0 0 1 20.2 11A7.3 7.3 0 0 0 69.2 18C68.7 17.2 58 0 36.6 0S0 19 0 36c0 17.4 14.4 37 35.1 37 19.2 0 32-15.7 44.3-31 11.4-14 22.1-27.4 36.5-27.4 8.5 0 14.1 3 17.1 8.9 2.6 5.1 2.6 11 2.6 13a31 31 0 0 1-3.4 12.2c-3.3 6-7.9 8.7-14.5 8.7a29.4 29.4 0 0 1-23.3-12 16.8 16.8 0 0 0-2-2 7.3 7.3 0 0 0-9.8 10.8l.5.6c3.6 4.3 14.4 17.3 34.6 17.3 24.6 0 32.5-24 32.5-35.7a43.1 43.1 0 0 0-4.1-19.5C142 9.2 133.8 0 115.9 0z" data-name="Layer 1"/></g></svg>