<svg enable-background="new 0 0 283.46 283.46" version="1.1" viewBox="0 0 283 283" xmlns="http://www.w3.org/2000/svg">
<path fill="#{{.Style.InputTextColor.RGB}}" d="m142 2.23c-77 0-139 62.5-139 140 0 77 62.5 139 139 139 77 0 139-62.5 139-139 1e-3 -77-62.5-140-139-140zm0 258c-65.7 0-119-53.2-119-119s53.2-119 119-119c65.7 0 119 53.2 119 119 0 65.7-53.2 119-119 119zm0-219c-55.1 0-99.8 44.7-99.8 99.8 0 55.1 44.7 99.8 99.8 99.8s99.8-44.7 99.8-99.8c0-55.1-44.7-99.8-99.8-99.8zm49.3 36c8.69 0 15.7 7.04 15.7 15.7 0 8.69-7.04 15.7-15.7 15.7s-15.7-7.04-15.7-15.7c0-8.69 7.04-15.7 15.7-15.7zm-49.3-20c8.69 0 15.7 7.04 15.7 15.7 0 8.69-7.04 15.7-15.7 15.7s-15.7-7.04-15.7-15.7c0-8.69 7.04-15.7 15.7-15.7zm-48.7 20c8.69 0 15.7 7.04 15.7 15.7 0 8.69-7.04 15.7-15.7 15.7s-15.7-7.04-15.7-15.7c-1e-3 -8.69 7.04-15.7 15.7-15.7zm-35 63.8c0-8.69 7.04-15.7 15.7-15.7s15.7 7.04 15.7 15.7c0 8.69-7.04 15.7-15.7 15.7-8.69 0-15.7-7.04-15.7-15.7zm35 65.6c-8.69 0-15.7-7.04-15.7-15.7s7.04-15.7 15.7-15.7 15.7 7.04 15.7 15.7-7.04 15.7-15.7 15.7zm48.7 20.7c-8.69 0-15.7-7.04-15.7-15.7 0-8.69 7.04-15.7 15.7-15.7 8.69 0 15.7 7.04 15.7 15.7 1e-3 8.68-7.04 15.7-15.7 15.7zm2e-3 -47c-21.2 0-38.5-17.2-38.5-38.5 0-21.2 17.2-38.5 38.5-38.5 21.2 0 38.5 17.2 38.5 38.5 0 21.2-17.2 38.5-38.5 38.5zm49.3 26.3c-8.69 0-15.7-7.04-15.7-15.7s7.04-15.7 15.7-15.7 15.7 7.04 15.7 15.7-7.04 15.7-15.7 15.7zm18.6-49.9c-8.69 0-15.7-7.04-15.7-15.7 0-8.69 7.04-15.7 15.7-15.7s15.7 7.04 15.7 15.7c0 8.69-7.04 15.7-15.7 15.7z"/>
</svg>
