<svg xmlns="http://www.w3.org/2000/svg" xmlns:xlink="http://www.w3.org/1999/xlink" version="1.1" x="0px" y="0px" viewBox="0 0 100 125" enable-background="new 0 0 100 100" xml:space="preserve"><g><g><path fill="none" d="M44.826,58.328c2.255,1.735,8.498,4.55,11.022,1.58c0.298-2.405,0.595-4.81,0.893-7.215    c-0.802-0.565-1.605-1.13-2.408-1.695c-1.426-0.795-3.076-1.299-4.653-1.7c-3.201-0.816-6.573-0.987-9.861-0.581    C40.084,52.376,41.569,55.823,44.826,58.328z"/><path d="M82.955,5.014c-9.566,0.991-19.133,1.983-28.699,2.974c-3.063,0.317-4.466,5.44-0.803,5.937    c0.269,0.036,0.536,0.061,0.805,0.095c0,0.004-0.001,0.008-0.002,0.013c0.019-0.002,0.039-0.004,0.059-0.006    c1.707,0.217,3.407,0.387,5.101,0.511c-10.634,5.479-20.223,13.75-24.011,23.88c-0.673,1.801-1.082,3.728-1.257,5.698    c-10.513,3.005-19.164,11.221-20.03,23.095c-1.562,21.415,22.83,28.116,39.721,27.777c1.4-0.028,1.804-2.215,0.341-2.523    c-12.664-2.666-33.344-4.743-34.763-21.553c-0.889-10.526,6.061-17.949,14.898-20.94c1.474,10.048,8.889,19.14,20.498,16.542    c5.889-1.318,10.947-6.805,9.063-13.072c-2.102-6.995-10.586-9.65-17.039-10.385c-2.17-0.247-4.355-0.263-6.513-0.075    c0.491-2.076,1.276-4.104,2.284-5.95c5.956-10.907,20.758-19.083,33.283-22.36c-1.756,3.487-3.38,7.038-4.862,10.677    c-1.476,3.624,4.41,5.205,5.867,1.618c2.451-6.031,5.361-11.789,8.679-17.387C86.658,7.752,85.304,4.771,82.955,5.014z     M49.681,49.298c1.576,0.402,3.226,0.905,4.653,1.7c0.803,0.565,1.605,1.13,2.408,1.695c-0.298,2.405-0.595,4.81-0.893,7.215    c-2.524,2.971-8.767,0.155-11.022-1.58c-3.257-2.505-4.742-5.952-5.006-9.611C43.107,48.312,46.479,48.482,49.681,49.298z"/></g></g></svg>