<svg xmlns="http://www.w3.org/2000/svg" viewBox="0 0 106.57 170.69"><g><g><path d="M60.28 106.17s36.72-.38 29.92 25.77l6.24-6c19.75-19 9-52.44-18.16-56.36L45.83 64.9c-21.29-2-34-10-29.62-27.11L9.6 44.31C-8.55 62.2.36 93.09 25.25 98.55z"/><path d="M80 4.08L44.24 0a3.49 3.49 0 00-3.12 5.63L45 10.5l-25.42 25-.25.24C15 52.86 26.21 60.73 47.51 62.69l22.28-21 3 3.78A3.48 3.48 0 0079 43.71l4.1-35.78A3.47 3.47 0 0080 4.08zM59.25 108.53l-30.7 28.09a19.62 19.62 0 00-1.23 27.71 19.27 19.27 0 0027.76.88l31.81-30.65c8.78-26.03-27.64-26.03-27.64-26.03z"/></g></g></svg>
