<svg xmlns="http://www.w3.org/2000/svg" viewBox="0 0 31.8 41.3"><g data-name="Layer 2"><path d="M0 27.8l5-.4a11 11 0 0 0 1.6 4.9 9 9 0 0 0 4 3.1 15.3 15.3 0 0 0 6.2 1.2 14.7 14.7 0 0 0 5.3-1 7.4 7.4 0 0 0 3.5-2.4 5.7 5.7 0 0 0 1.1-3.4 5.2 5.2 0 0 0-1-3.3 8 8 0 0 0-3.7-2.3 69 69 0 0 0-7.1-2 35.6 35.6 0 0 1-7.7-2.5A10.9 10.9 0 0 1 2.9 16a9.2 9.2 0 0 1-1.4-5 10.1 10.1 0 0 1 1.8-5.6 10.6 10.6 0 0 1 5-4A19 19 0 0 1 15.6 0a20.2 20.2 0 0 1 7.8 1.4 11.4 11.4 0 0 1 5.3 4.2 12.2 12.2 0 0 1 2 6.3l-5.1.4a8.2 8.2 0 0 0-2.8-5.7q-2.4-2-7-2c-3.2 0-5.5.7-7 1.8a5.3 5.3 0 0 0-2.2 4.3A4.5 4.5 0 0 0 8 14.2q1.6 1.4 8 2.9a53.6 53.6 0 0 1 8.9 2.5 12.2 12.2 0 0 1 5.2 4 10 10 0 0 1 1.6 5.8 10.9 10.9 0 0 1-1.8 6 12 12 0 0 1-5.3 4.4 18.3 18.3 0 0 1-7.7 1.5 22.9 22.9 0 0 1-9-1.5A12.7 12.7 0 0 1 2.2 35 13.4 13.4 0 0 1 0 27.8z" data-name="Layer 1"/></g></svg>