<svg xmlns="http://www.w3.org/2000/svg" viewBox="0 0 87 68.2"><defs/><g data-name="Layer 2"><path d="M67.2 17a24.8 24.8 0 00-46.9-.2A26 26 0 0026 68.2h35a26 26 0 006.2-51.3zM2 42.2c0-11.7 7-20.5 17.7-23.4C14.2 23 9 34 9 42.2a17 17 0 0034.1 0c0-3.6-2.5-9.6-2.5-9.6a34.8 34.8 0 017.5-8.8c5.7-4.6 13.2-4.9 13.2-4.9s-7.5 5.6-10 8.4A15.8 15.8 0 0048 33s2.2 6.6 2.2 9.3a24 24 0 11-48.2 0zm63.8 24C71 64 74 59 76.7 53H56.4c-5.8 9-14.6 13.1-21.6 13.4C48 60 55.3 48.8 49.5 33l7.3-.1c1.4 3.2 1.6 7.5 1.3 12.8h20.4c.9-4 .1-8.2-1.1-12.8h6.4c4.5 13.8-.7 28.1-18 33.4z" data-name="Layer 1"/></g></svg>
