<svg xmlns="http://www.w3.org/2000/svg" xmlns:xlink="http://www.w3.org/1999/xlink" version="1.1" x="0px" y="0px" viewBox="0 0 100 125" enable-background="new 0 0 100 100" xml:space="preserve"><path d="M92.5,5c-19.7,0-38.3,7.7-52.2,21.6l-9.8,9.8H16.7c-0.7,0-1.3,0.3-1.8,0.7l-9.2,9.2c-1.5,1.5-0.4,4.3,1.8,4.3H21l7.6,10.9  l-4.6,11.2c-0.8,2,1.3,4.1,3.3,3.3l11.2-4.6L49.3,79v13.5c0,2.2,2.7,3.3,4.3,1.8l9.2-9.2c0.5-0.5,0.7-1.1,0.7-1.8V69.5l9.8-9.8  C87.3,45.8,95,27.2,95,7.5C95,6.1,93.9,5,92.5,5z M54.3,86.5v-8.7c0-0.8-0.4-1.6-1.1-2.1l-13.1-9.1c-0.7-0.5-1.6-0.6-2.4-0.3l-7,2.9  l2.9-7c0.3-0.8,0.2-1.7-0.3-2.4l-9.1-13.1c-0.5-0.7-1.2-1.1-2.1-1.1h-8.7l4.2-4.2h13.5C37,53.4,46.6,63,58.6,68.7v13.5L54.3,86.5z   M69.8,56.2L59.6,66.4c-11.4-5.4-20.6-14.6-26-26l10.2-10.2C56.2,17.8,72.5,10.7,90,10C89.3,27.5,82.2,43.8,69.8,56.2z"/><path d="M74.8,30.5c1.4,0,2.7-0.5,3.7-1.5s1.5-2.3,1.5-3.7s-0.5-2.7-1.5-3.7S76.2,20,74.8,20s-2.7,0.5-3.7,1.5c-1,1-1.5,2.3-1.5,3.7  s0.5,2.7,1.5,3.7C72.1,29.9,73.4,30.5,74.8,30.5z M72.8,23.3c0.5-0.5,1.2-0.8,1.9-0.8s1.4,0.3,1.9,0.8c0.5,0.5,0.8,1.2,0.8,1.9  s-0.3,1.4-0.8,1.9c-1,1-2.8,1-3.9,0C72.3,26.6,72,26,72,25.2S72.3,23.8,72.8,23.3z"/><path d="M65.2,40c1.4,0,2.7-0.5,3.7-1.5c1-1,1.5-2.3,1.5-3.7s-0.5-2.7-1.5-3.7c-1-1-2.3-1.5-3.7-1.5c-1.4,0-2.7,0.5-3.7,1.5  S60,33.4,60,34.8s0.5,2.7,1.5,3.7S63.8,40,65.2,40z M63.3,32.8c0.5-0.5,1.2-0.8,1.9-0.8c0.7,0,1.4,0.3,1.9,0.8S68,34,68,34.8  s-0.3,1.4-0.8,1.9c-1,1-2.8,1-3.9,0c-0.5-0.5-0.8-1.2-0.8-1.9S62.8,33.4,63.3,32.8z"/><path d="M54.8,50.5c1.4,0,2.7-0.5,3.7-1.5s1.5-2.3,1.5-3.7s-0.5-2.7-1.5-3.7S56.2,40,54.8,40s-2.7,0.5-3.7,1.5c-1,1-1.5,2.3-1.5,3.7  s0.5,2.7,1.5,3.7C52.1,49.9,53.4,50.5,54.8,50.5z M52.8,43.3c0.5-0.5,1.2-0.8,1.9-0.8s1.4,0.3,1.9,0.8c0.5,0.5,0.8,1.2,0.8,1.9  s-0.3,1.4-0.8,1.9c-1,1-2.8,1-3.9,0C52.3,46.6,52,46,52,45.2S52.3,43.8,52.8,43.3z"/><path d="M18.8,94c0.1,0.6,0.6,1,1.2,1c0.3,0,0.6-0.1,0.9-0.4l7.3-7.3l1.9,5.6c0.4,1.2,1.7,1,2.3,0.2c0.3-0.4,0.6-0.8,0.8-1.2  c1.1-1.6,2.1-3.2,3.2-4.8c1-1.5,1.9-2.9,2.9-4.4c0.2-0.2,0.4-0.5,0.5-0.7c0.7-1.4-1.2-2.8-2.1-1.4l-6.1,9.1l-1.7-5.1  c-0.3-0.9-1.4-1.1-2.1-0.5l-7,7L20,86c-0.1-0.8-1.1-1.3-1.9-0.9l-8.2,4.9l4.9-8.2c0.4-0.7,0-1.7-0.9-1.9l-5.1-0.9l7-7  c0.6-0.6,0.4-1.8-0.5-2.1l-5.1-1.7l9.1-6.1c1.4-0.9,0-2.8-1.4-2.1c-0.3,0.1-0.5,0.3-0.7,0.5c-1.5,1-2.9,1.9-4.4,2.9  c-1.6,1.1-3.2,2.1-4.8,3.2c-0.4,0.3-0.8,0.5-1.2,0.8c-0.8,0.6-1,1.9,0.2,2.3l5.6,1.9l-7.3,7.3c-0.7,0.7-0.3,2,0.7,2.1l5.7,0.9  L5.2,93.1c-0.7,1.1,0.6,2.4,1.7,1.7l10.9-6.6L18.8,94z"/></svg>