<svg xmlns="http://www.w3.org/2000/svg" viewBox="0 0 640 512"><path fill="none" d="M-169.7 734.1l41.6-24.5v93.7c0 18-.6 30.9-2 38.7-1.3 7.8-5.3 14.4-12 19.7-6.6 5.3-16.5 8-29.6 8-12.9 0-23.1-2.9-30.5-8.5-7.4-5.7-12.1-13.2-14.1-22.5-1.1-5.8-1.7-18.5-1.7-38.1V677.3h-46v121.6c0 25.5 1.5 44.7 4.5 57.8 2.1 8.9 6.4 17.3 12.9 25.3s15.4 14.6 26.7 19.6 27.8 7.5 49.6 7.5c18.1 0 32.7-2.3 43.9-6.9 11.3-4.6 20.2-10.8 26.9-18.6 6.7-7.8 11.3-17.3 13.8-28.6s3.7-30.6 3.7-58v-88.2l43 25.4-65.4-100.2-65.3 100.1z"/><path d="M509.2 226.6c3.6-10.7 5.6-22.4 5.6-34.6 0-53-37.4-96-83.5-96-17.1 0-33.1 6-46.3 16.2-24.1-48-69-80.2-120.6-80.2-76.9 0-139.1 71.6-139.1 160 0 2.7.1 5.4.2 8.1-48.7 19.7-83.7 73.1-83.7 135.9 0 79.5 56.1 144 125.2 144h319.9c61.5 0 111.3-57.3 111.3-128 0-61.9-38.3-113.6-89-125.4zm-96.2 1.5v96c0 29.8-1.3 50.8-4.1 63.1-2.8 12.3-7.9 22.6-15.3 31.1s-17.3 15.2-29.9 20.2c-12.4 5-28.6 7.5-48.7 7.5-24.2 0-42.5-2.7-55.1-8.2-12.5-5.4-22.4-12.6-29.6-21.3s-12-17.8-14.3-27.5c-3.3-14.2-5-35.1-5-62.8V194h51v134.2c0 21.3.7 35.1 1.9 41.4 2.2 10.1 7.5 18.3 15.7 24.5 8.2 6.1 19.6 9.2 33.9 9.2 14.6 0 25.6-2.9 32.9-8.7 7.5-5.8 11.9-12.9 13.3-21.4 1.6-8.5 2.2-22.5 2.2-42.1v-102l-46 26.6L388.2 147l72.4 108.7-47.6-27.6z"/></svg>