<?xml version="1.0" standalone="no"?>
<!DOCTYPE svg PUBLIC "-//W3C//DTD SVG 20010904//EN"
 "http://www.w3.org/TR/2001/REC-SVG-20010904/DTD/svg10.dtd">
<svg version="1.0" xmlns="http://www.w3.org/2000/svg"
 width="201.000000pt" height="215.000000pt" viewBox="0 0 201.000000 215.000000"
 preserveAspectRatio="xMidYMid meet">
<metadata>
Created by potrace 1.10, written by Peter Selinger 2001-2011
</metadata>
<g transform="translate(0.000000,215.000000) scale(0.100000,-0.100000)"
fill="#000000" stroke="none">
<path d="M956 1773 c-14 -43 -41 -136 -62 -208 -20 -71 -40 -135 -45 -141 -5
-6 -6 -13 -4 -16 3 -3 0 -17 -6 -32 -12 -26 -13 -26 -123 -26 -221 -1 -358 -9
-372 -21 -20 -17 -9 -28 195 -189 94 -74 173 -142 176 -152 3 -9 -12 -74 -33
-145 -92 -299 -105 -354 -89 -371 14 -13 28 -5 130 76 64 50 126 99 139 110
12 11 49 41 81 66 l57 47 195 -157 c166 -133 198 -154 211 -143 18 15 21 1
-63 291 -37 126 -65 229 -62 231 213 170 367 295 376 307 9 12 9 18 -3 30 -12
12 -56 15 -246 16 l-232 1 -12 29 c-7 16 -21 61 -32 99 -59 205 -105 351 -114
363 -22 26 -37 10 -62 -65z m54 51 c0 -8 32 -125 72 -260 l72 -244 248 0 249
0 -201 -160 c-151 -121 -200 -165 -196 -178 22 -72 146 -494 146 -498 0 -2
-90 68 -200 156 l-200 161 -202 -162 c-114 -92 -199 -154 -196 -143 3 10 38
128 78 262 40 134 70 244 68 246 -1 1 -92 73 -201 159 l-198 157 249 0 248 0
72 244 c40 134 72 251 72 260 0 9 5 16 10 16 6 0 10 -7 10 -16z"/>
</g>
</svg>
