<?xml version="1.0" standalone="no"?>
<!DOCTYPE svg PUBLIC "-//W3C//DTD SVG 20010904//EN"
 "http://www.w3.org/TR/2001/REC-SVG-20010904/DTD/svg10.dtd">
<svg version="1.0" xmlns="http://www.w3.org/2000/svg"
 width="201.000000pt" height="215.000000pt" viewBox="0 0 201.000000 215.000000"
 preserveAspectRatio="xMidYMid meet">
<g transform="translate(0.000000,215.000000) scale(0.100000,-0.100000)"
fill="#000000" stroke="none">
<path d="M0 1075 l0 -1075 1005 0 1005 0 0 1075 0 1075 -1005 0 -1005 0 0
-1075z m1081 503 l74 -253 247 -5 247 -5 -199 -159 c-109 -87 -197 -163 -195
-170 21 -57 145 -491 143 -497 -2 -4 -90 62 -195 147 -106 85 -197 154 -203
154 -6 0 -97 -69 -203 -154 -105 -85 -194 -153 -195 -151 -2 2 26 106 63 232
37 125 71 240 75 255 8 26 0 34 -192 188 l-201 160 249 0 249 0 74 255 c41
140 77 255 81 255 3 0 40 -114 81 -252z"/>
</g>
</svg>
